<svg aria-hidden="true" style="position: absolute; width: 0; height: 0; overflow: hidden;" version="1.1" xmlns="http://www.w3.org/2000/svg" xmlns:xlink="http://www.w3.org/1999/xlink">
<defs>
<symbol id="burger" viewBox="0 0 39 32">
<path fill="none" stroke="#525352" style="stroke: var(--color1, #525352)" stroke-linejoin="miter" stroke-linecap="round" stroke-miterlimit="4" stroke-width="4.5714" d="M2.286 2.286h34.286"></path>
<path fill="none" stroke="#525352" style="stroke: var(--color1, #525352)" stroke-linejoin="miter" stroke-linecap="round" stroke-miterlimit="4" stroke-width="4.5714" d="M9.143 16h20.571"></path>
<path fill="none" stroke="#525352" style="stroke: var(--color1, #525352)" stroke-linejoin="miter" stroke-linecap="round" stroke-miterlimit="4" stroke-width="4.5714" d="M2.286 29.714h34.286"></path>
</symbol>
<symbol id="close" viewBox="0 0 32 32">
<path fill="none" stroke="#525352" style="stroke: var(--color1, #525352)" stroke-linejoin="miter" stroke-linecap="round" stroke-miterlimit="4" stroke-width="4.9231" d="M2.462 28.878l26.109-26.109"></path>
<path fill="none" stroke="#525352" style="stroke: var(--color1, #525352)" stroke-linejoin="miter" stroke-linecap="round" stroke-miterlimit="4" stroke-width="4.9231" d="M29.447 27.738l-26.913-25.279"></path>
</symbol>
<symbol id="connect" viewBox="0 0 32 32">
<path d="M30.445 3.117c0.195-0.21 0.302-0.487 0.297-0.773s-0.121-0.56-0.324-0.762c-0.203-0.203-0.476-0.319-0.762-0.324s-0.564 0.101-0.773 0.297l-2.966 2.966c-1.207-0.856-2.678-1.256-4.151-1.132s-2.856 0.767-3.902 1.813l-1.575 1.576c-0.483 0.484-0.755 1.14-0.755 1.824s0.272 1.34 0.755 1.824l5.285 5.287c0.24 0.24 0.524 0.43 0.837 0.559s0.649 0.196 0.987 0.196c0.339 0 0.674-0.067 0.987-0.196s0.598-0.32 0.837-0.559l1.574-1.575c1.046-1.046 1.689-2.428 1.814-3.902s-0.276-2.945-1.131-4.152l2.966-2.966zM25.16 6.766l0.033 0.034 0.004 0.003 0.003 0.004 0.034 0.032c0.377 0.376 0.676 0.824 0.879 1.316s0.309 1.019 0.309 1.552-0.105 1.060-0.309 1.552c-0.204 0.492-0.503 0.939-0.879 1.316l-1.575 1.573c-0.034 0.034-0.075 0.062-0.12 0.080s-0.093 0.028-0.141 0.028c-0.049 0-0.097-0.010-0.141-0.028s-0.085-0.046-0.12-0.080l-5.287-5.285c-0.034-0.034-0.061-0.075-0.080-0.12s-0.028-0.093-0.028-0.141c0-0.048 0.010-0.096 0.028-0.141s0.046-0.085 0.080-0.12l1.575-1.575c0.377-0.377 0.823-0.675 1.316-0.879s1.019-0.309 1.552-0.309c0.533 0 1.060 0.105 1.552 0.309s0.939 0.503 1.315 0.879zM14.228 14.911c0.109-0.101 0.196-0.223 0.256-0.359s0.093-0.282 0.096-0.431c0.003-0.148-0.025-0.296-0.080-0.434s-0.138-0.263-0.243-0.368c-0.105-0.105-0.23-0.188-0.368-0.243s-0.285-0.083-0.434-0.080c-0.148 0.003-0.295 0.035-0.431 0.096s-0.258 0.148-0.359 0.256l-2.536 2.536-0.693-0.693c-0.207-0.207-0.488-0.323-0.781-0.323s-0.574 0.116-0.781 0.323l-2.617 2.617c-1.046 1.046-1.689 2.428-1.814 3.902s0.276 2.945 1.131 4.152l-2.966 2.966c-0.109 0.101-0.196 0.223-0.256 0.359s-0.093 0.282-0.096 0.431c-0.003 0.148 0.025 0.296 0.080 0.434s0.138 0.263 0.243 0.368c0.105 0.105 0.23 0.188 0.368 0.243s0.285 0.083 0.434 0.080 0.295-0.035 0.43-0.095c0.136-0.060 0.258-0.148 0.359-0.256l2.966-2.966c1.207 0.855 2.678 1.256 4.152 1.131s2.856-0.767 3.902-1.814l2.617-2.617c0.207-0.207 0.323-0.488 0.323-0.782s-0.116-0.574-0.323-0.781l-0.693-0.693 2.536-2.536c0.109-0.101 0.196-0.223 0.256-0.359s0.093-0.282 0.096-0.43c0.003-0.148-0.025-0.296-0.080-0.434s-0.138-0.263-0.243-0.368c-0.105-0.105-0.23-0.188-0.368-0.243s-0.285-0.083-0.434-0.080c-0.149 0.003-0.295 0.035-0.431 0.096s-0.258 0.148-0.359 0.256l-2.536 2.536-2.86-2.86 2.536-2.536zM9.343 18.224l0.006 0.004 0.004 0.006 5.11 5.11-1.834 1.836c-0.376 0.377-0.823 0.675-1.316 0.879s-1.019 0.309-1.552 0.309c-0.533 0-1.060-0.105-1.552-0.309s-0.939-0.503-1.316-0.879l-0.074-0.074c-0.377-0.377-0.675-0.823-0.879-1.316s-0.309-1.019-0.309-1.552 0.105-1.060 0.309-1.552c0.204-0.492 0.503-0.939 0.879-1.315l1.835-1.833 0.687 0.686z"></path>
</symbol>
<symbol id="arrow-right" viewBox="0 0 35 32">
<path stroke-linejoin="miter" stroke-linecap="butt" stroke-miterlimit="4" stroke-width="2.9091" d="M0 16h32M32 16l-11.636-14.545M32 16l-11.636 14.545"></path>
</symbol>
</defs>
</svg>
