<svg width="27" height="28" viewBox="0 0 27 28" fill="none" xmlns="http://www.w3.org/2000/svg">
  <g filter="url(#filter0_n_1_111)">
    <path d="M4.69057 19.1784C-1.72626 13.902 0.700508 8.79834 0.137401 1.77218C0.111485 1.44882 0.388151 1.17978 0.706463 1.24232C4.53174 1.99386 10.9904 5.00984 12.3761 12.3984C13.0019 15.7351 12.6841 20.3091 12.6782 25.9784C12.678 26.1412 12.469 26.2087 12.3721 26.0781C11.2058 24.507 10.7978 24.2002 4.69057 19.1784Z" fill="url(#paint0_linear_1_111)" />
    <path d="M4.30118 18.623C-1.19986 14.0759 0.637824 7.70183 0.415406 2.01322C0.403029 1.69665 0.67664 1.44116 0.986945 1.50505C4.57286 2.24339 10.8818 5.36102 12.164 12.1974C12.7414 15.2756 12.6999 20.5914 12.7085 25.8864C12.7088 26.0529 12.4894 26.1208 12.3916 25.9861C11.1399 24.2625 9.54911 22.9608 4.30118 18.623Z" fill="url(#paint1_linear_1_111)" />
    <g opacity="0.6">
      <path d="M12.7099 25.994L12.6945 19.9219C12.6925 19.1235 12.5214 18.3252 12.1341 17.627C7.5464 9.3589 0.416494 11.1415 0.416494 11.1415C0.416494 11.1415 0.519386 15.6787 4.21902 18.6048C6.33441 20.2779 6.9622 20.9875 9.07714 22.6612C10.7621 23.9946 11.857 25.3757 12.3705 26.0982C12.4696 26.2377 12.7103 26.1652 12.7099 25.994Z" fill="url(#paint2_linear_1_111)" />
      <path d="M12.7099 25.994L12.6945 19.9219C12.6925 19.1235 12.5214 18.3252 12.1341 17.627C7.5464 9.3589 0.416494 11.1415 0.416494 11.1415C0.416494 11.1415 0.519386 15.6787 4.21902 18.6048C6.33441 20.2779 6.9622 20.9875 9.07714 22.6612C10.7621 23.9946 11.857 25.3757 12.3705 26.0982C12.4696 26.2377 12.7103 26.1652 12.7099 25.994Z" fill="url(#paint3_radial_1_111)" />
    </g>
    <path d="M12.4876 18.4684C10.4906 14.1258 6.13682 10.3611 1.17164 11.0577C1.08856 11.0683 1.00094 11.0458 0.919587 11.0585C1.00096 11.0459 1.08873 11.0688 1.17183 11.0584C6.04736 10.4949 10.4262 14.244 12.2135 18.5984C12.321 18.8374 12.6024 19.4374 12.6024 19.4374L12.5246 18.9324C12.5246 18.9324 12.6064 18.7061 12.4876 18.4684Z" fill="url(#paint4_linear_1_111)" />
    <path d="M12.5704 18.4107C10.5733 14.0682 6.22061 10.3606 1.25542 11.0573C1.17235 11.0678 1.08472 11.0453 1.00337 11.058C1.08474 11.0454 1.17252 11.0683 1.25562 11.0579C6.23673 10.3727 10.509 14.1864 12.2962 18.5408C12.4037 18.7798 12.6851 19.3798 12.6851 19.3798L12.6074 18.8747C12.6074 18.8747 12.6891 18.6485 12.5704 18.4107Z" fill="#3F3F3F" />
  </g>
  <defs>
    <filter id="filter0_n_1_111" x="0.133789" y="1.23322" width="12.6299" height="24.9385" filterUnits="userSpaceOnUse" color-interpolation-filters="sRGB">
      <feFlood flood-opacity="0" result="BackgroundImageFix" />
      <feBlend mode="normal" in="SourceGraphic" in2="BackgroundImageFix" result="shape" />
      <feTurbulence type="fractalNoise" baseFrequency="19.821598052978516 19.821598052978516" stitchTiles="stitch" numOctaves="3" result="noise" seed="5092" />
      <feColorMatrix in="noise" type="luminanceToAlpha" result="alphaNoise" />
      <feComponentTransfer in="alphaNoise" result="coloredNoise1">
        <feFuncA type="discrete" tableValues="1 1 1 1 1 1 1 1 1 1 1 1 1 1 1 1 1 1 1 1 1 1 1 1 1 1 1 1 1 1 1 1 1 1 1 1 1 1 1 1 1 1 1 1 1 1 1 1 1 1 1 0 0 0 0 0 0 0 0 0 0 0 0 0 0 0 0 0 0 0 0 0 0 0 0 0 0 0 0 0 0 0 0 0 0 0 0 0 0 0 0 0 0 0 0 0 0 0 0 0 " />
      </feComponentTransfer>
      <feComposite operator="in" in2="shape" in="coloredNoise1" result="noise1Clipped" />
      <feFlood flood-color="rgba(131, 123, 123, 0.25)" result="color1Flood" />
      <feComposite operator="in" in2="noise1Clipped" in="color1Flood" result="color1" />
      <feMerge result="effect1_noise_1_111">
        <feMergeNode in="shape" />
        <feMergeNode in="color1" />
      </feMerge>
    </filter>
    <linearGradient id="paint0_linear_1_111" x1="0.599417" y1="0.544097" x2="13.296" y2="27.1985" gradientUnits="userSpaceOnUse">
      <stop stop-color="#F0F0F0" />
      <stop offset="1" stop-color="#686868" />
    </linearGradient>
    <linearGradient id="paint1_linear_1_111" x1="-1.53146" y1="2.8667" x2="12.5236" y2="23.8389" gradientUnits="userSpaceOnUse">
      <stop stop-color="#F2F2F2" />
      <stop offset="0.226398" stop-color="#D4D4D4" />
      <stop offset="0.730106" stop-color="#404040" />
      <stop offset="1" stop-color="#343434" />
    </linearGradient>
    <linearGradient id="paint2_linear_1_111" x1="2.78821" y1="10.7174" x2="13.6031" y2="24.5596" gradientUnits="userSpaceOnUse">
      <stop stop-color="#D0CFCF" />
      <stop offset="0.270601" stop-color="#D6D6D6" />
      <stop offset="1" stop-color="#888888" />
    </linearGradient>
    <radialGradient id="paint3_radial_1_111" cx="0" cy="0" r="1" gradientUnits="userSpaceOnUse" gradientTransform="translate(2.42002 11.6108) rotate(84.8056) scale(13.0022 9.70146)">
      <stop stop-color="#DBDBDB" />
      <stop offset="1" stop-color="#CBCBCA" stop-opacity="0" />
    </radialGradient>
    <linearGradient id="paint4_linear_1_111" x1="6.21665" y1="11.6464" x2="6.93408" y2="19.6598" gradientUnits="userSpaceOnUse">
      <stop stop-color="#C8C8C8" />
      <stop offset="1" stop-color="#828282" />
    </linearGradient>
  </defs>

   <g filter="url(#filter0_n_1_124)" transform="translate(12,0)">
    <path d="M9.10679 19.0747C15.3771 14.2075 13.473 9.12009 13.7165 1.6236C13.7246 1.37551 13.5533 1.15479 13.3051 1.15791C10.5161 1.19297 2.51304 4.98331 1.62486 12.4566C1.20495 15.9898 1.05689 20.3654 1.19248 26.0415C1.19614 26.1948 1.3857 26.2626 1.48407 26.1449C2.88795 24.4656 3.09423 23.7418 9.10679 19.0747Z" fill="url(#paint0_radial_1_124)" />
    <path d="M9.10679 19.0747C15.3771 14.2075 13.473 9.12009 13.7165 1.6236C13.7246 1.37551 13.5533 1.15479 13.3051 1.15791C10.5161 1.19297 2.51304 4.98331 1.62486 12.4566C1.20495 15.9898 1.05689 20.3654 1.19248 26.0415C1.19614 26.1948 1.3857 26.2626 1.48407 26.1449C2.88795 24.4656 3.09423 23.7418 9.10679 19.0747Z" fill="url(#paint1_radial_1_124)" />
    <path d="M9.65097 18.4352C15.152 13.8882 13.3143 7.51412 13.5367 1.82551C13.5491 1.50893 13.2755 1.25345 12.9652 1.31734C9.37929 2.05567 3.07031 5.17331 1.78811 12.0097C1.21078 15.0879 1.25224 20.4036 1.24366 25.6987C1.24339 25.8652 1.46271 25.9331 1.56054 25.7984C2.81225 24.0748 4.40304 22.7731 9.65097 18.4352Z" fill="url(#paint2_linear_1_124)" />
    <path d="M1.24212 25.864L1.25764 19.7342C1.25966 18.9358 1.43071 18.1375 1.8181 17.4393C6.40575 9.17119 13.5357 10.9538 13.5357 10.9538C13.5357 10.9538 13.3954 15.5947 9.69576 18.5209C7.58038 20.194 7.11718 20.554 4.9871 22.3546C3.29229 23.7872 2.10453 25.2522 1.56608 25.9695C1.46609 26.1027 1.2417 26.0306 1.24212 25.864Z" fill="url(#paint3_linear_1_124)" />
    <path d="M1.24212 25.864L1.25764 19.7342C1.25966 18.9358 1.43071 18.1375 1.8181 17.4393C6.40575 9.17119 13.5357 10.9538 13.5357 10.9538C13.5357 10.9538 13.3954 15.5947 9.69576 18.5209C7.58038 20.194 7.11718 20.554 4.9871 22.3546C3.29229 23.7872 2.10453 25.2522 1.56608 25.9695C1.46609 26.1027 1.2417 26.0306 1.24212 25.864Z" fill="url(#paint4_radial_1_124)" />
    <path d="M1.46451 18.2806C3.46156 13.9381 7.81532 10.1733 12.7805 10.87C12.8636 10.8805 12.9512 10.858 13.0326 10.8708C12.9512 10.8581 12.8634 10.881 12.7803 10.8706C7.90479 10.3072 3.52591 14.0563 1.73864 18.4107C1.63116 18.6497 1.34975 19.2497 1.34975 19.2497L1.42752 18.7447C1.42752 18.7447 1.34578 18.5184 1.46451 18.2806Z" fill="url(#paint5_linear_1_124)" />
    <path d="M1.45679 18.1727C3.45383 13.8302 7.7308 10.1731 12.696 10.8697C12.7791 10.8803 12.8667 10.8578 12.948 10.8705C12.8667 10.8579 12.7789 10.8808 12.6958 10.8704C7.71468 10.1852 3.44242 13.9988 1.65516 18.3533C1.54768 18.5922 1.26626 19.1922 1.26626 19.1922L1.26617 18.7395C1.26617 18.7395 1.33805 18.4105 1.45679 18.1727Z" fill="url(#paint6_linear_1_124)" />
  </g>
  <defs>
    <filter id="filter0_n_1_124" x="1.14355" y="1.15788" width="12.6641" height="25.0467" filterUnits="userSpaceOnUse" color-interpolation-filters="sRGB">
      <feFlood flood-opacity="0" result="BackgroundImageFix" />
      <feBlend mode="normal" in="SourceGraphic" in2="BackgroundImageFix" result="shape" />
      <feTurbulence type="fractalNoise" baseFrequency="19.821598052978516 19.821598052978516" stitchTiles="stitch" numOctaves="3" result="noise" seed="5092" />
      <feColorMatrix in="noise" type="luminanceToAlpha" result="alphaNoise" />
      <feComponentTransfer in="alphaNoise" result="coloredNoise1">
        <feFuncA type="discrete" tableValues="1 1 1 1 1 1 1 1 1 1 1 1 1 1 1 1 1 1 1 1 1 1 1 1 1 1 1 1 1 1 1 1 1 1 1 1 1 1 1 1 1 1 1 1 1 1 1 1 1 1 1 0 0 0 0 0 0 0 0 0 0 0 0 0 0 0 0 0 0 0 0 0 0 0 0 0 0 0 0 0 0 0 0 0 0 0 0 0 0 0 0 0 0 0 0 0 0 0 0 0 " />
      </feComponentTransfer>
      <feComposite operator="in" in2="shape" in="coloredNoise1" result="noise1Clipped" />
      <feFlood flood-color="rgba(131, 123, 123, 0.25)" result="color1Flood" />
      <feComposite operator="in" in2="noise1Clipped" in="color1Flood" result="color1" />
      <feMerge result="effect1_noise_1_124">
        <feMergeNode in="shape" />
        <feMergeNode in="color1" />
      </feMerge>
    </filter>
    <radialGradient id="paint0_radial_1_124" cx="0" cy="0" r="1" gradientUnits="userSpaceOnUse" gradientTransform="translate(13.7326 7.49549) rotate(-152.21) scale(7.03341 31.3168)">
      <stop stop-color="#3A3A3A" />
      <stop offset="1" stop-color="white" />
    </radialGradient>
    <radialGradient id="paint1_radial_1_124" cx="0" cy="0" r="1" gradientUnits="userSpaceOnUse" gradientTransform="translate(4.9879 5.30932) rotate(101.541) scale(16.3913 18.5545)">
      <stop stop-color="white" />
      <stop offset="1" stop-color="#292929" stop-opacity="0.75" />
    </radialGradient>
    <linearGradient id="paint2_linear_1_124" x1="15.4836" y1="2.67899" x2="-1.65593" y2="21.8506" gradientUnits="userSpaceOnUse">
      <stop stop-color="#696969" />
      <stop offset="0.269894" stop-color="#868685" />
      <stop offset="0.773602" stop-color="#BBB9B9" />
    </linearGradient>
    <linearGradient id="paint3_linear_1_124" x1="11.1639" y1="10.5297" x2="1.28776" y2="24.4566" gradientUnits="userSpaceOnUse">
      <stop stop-color="#8A8888" />
      <stop offset="0.270601" stop-color="#666565" />
      <stop offset="1" stop-color="#424141" />
    </linearGradient>
    <radialGradient id="paint4_radial_1_124" cx="0" cy="0" r="1" gradientUnits="userSpaceOnUse" gradientTransform="translate(11.5472 11.5295) rotate(95.3041) scale(12.8976 9.62342)">
      <stop stop-color="#898887" />
      <stop offset="1" stop-color="#646060" stop-opacity="0" />
    </radialGradient>
    <linearGradient id="paint5_linear_1_124" x1="1.28769" y1="19.0754" x2="7.36558" y2="10.6142" gradientUnits="userSpaceOnUse">
      <stop stop-color="#3B3B3B" />
      <stop offset="1" stop-color="#484848" stop-opacity="0" />
    </linearGradient>
    <linearGradient id="paint6_linear_1_124" x1="1.37106" y1="18.5721" x2="7.2804" y2="10.6141" gradientUnits="userSpaceOnUse">
      <stop stop-color="#DEDEDE" />
      <stop offset="1" stop-color="#999999" />
    </linearGradient>
  </defs>
</svg>

